<svg width="1024" height="1024" viewBox="0 0 1024 1024" fill="none" xmlns="http://www.w3.org/2000/svg">
<mask id="mask0_3_50" style="mask-type:luminance" maskUnits="userSpaceOnUse" x="100" y="98" width="824" height="824">
<path fill-rule="evenodd" clip-rule="evenodd" d="M924 354.627C924 344.845 924.004 335.062 923.944 325.279C923.895 317.038 923.8 308.799 923.576 300.562C923.092 282.609 922.033 264.502 918.84 246.749C915.602 228.741 910.314 211.98 901.981 195.617C893.789 179.534 883.088 164.817 870.32 152.058C857.555 139.299 842.834 128.605 826.746 120.418C810.366 112.083 793.587 106.797 775.558 103.56C757.803 100.372 739.691 99.315 721.738 98.83C713.495 98.607 705.253 98.513 697.008 98.462C687.22 98.402 677.432 98.407 667.644 98.407L553.997 98H468.997L357.361 98.407C347.554 98.407 337.747 98.402 327.94 98.462C319.678 98.513 311.42 98.607 303.161 98.83C285.167 99.315 267.014 100.373 249.217 103.565C231.164 106.801 214.36 112.085 197.958 120.414C181.835 128.602 167.083 139.297 154.291 152.058C141.501 164.816 130.78 179.53 122.573 195.61C114.217 211.981 108.919 228.752 105.673 246.77C102.477 264.516 101.418 282.617 100.931 300.562C100.709 308.8 100.613 317.039 100.563 325.279C100.503 335.063 100 347.216 100 356.999L100.003 467.089L100 552.998L100.508 665.427C100.508 675.223 100.504 685.019 100.563 694.815C100.613 703.067 100.709 711.317 100.932 719.566C101.418 737.542 102.479 755.675 105.678 773.452C108.923 791.484 114.22 808.269 122.569 824.653C130.777 840.759 141.5 855.495 154.291 868.272C167.082 881.049 181.83 891.757 197.95 899.956C214.362 908.302 231.174 913.595 249.238 916.836C267.027 920.029 285.174 921.088 303.161 921.573C311.42 921.796 319.679 921.891 327.941 921.941C337.748 922.001 347.554 921.997 357.361 921.997L470.006 922H555.217L667.644 921.996C677.432 921.996 687.22 922.001 697.008 921.941C705.253 921.891 713.495 921.796 721.738 921.573C739.698 921.087 757.816 920.027 775.579 916.832C793.597 913.591 810.368 908.3 826.739 899.959C842.831 891.761 857.554 881.051 870.32 868.272C883.086 855.497 893.786 840.763 901.978 824.66C910.316 808.268 915.604 791.475 918.844 773.431C922.034 755.661 923.092 737.535 923.577 719.566C923.8 711.316 923.895 703.066 923.944 694.815C924.005 685.019 924 675.223 924 665.427C924 665.427 923.994 554.983 923.994 552.998V466.999C923.994 465.533 924 354.627 924 354.627Z" fill="white"/>
</mask>
<g mask="url(#mask0_3_50)">
<rect x="100" y="98" width="824" height="824" rx="126" fill="#181919"/>
<path d="M511.601 220.968C511.985 220.302 512.948 220.302 513.333 220.968L763.612 654.466C763.997 655.132 763.516 655.966 762.746 655.966H262.187C261.417 655.966 260.936 655.132 261.321 654.466L511.601 220.968Z" fill="#143954"/>
<path d="M233.057 586.231C232.313 586.031 232.064 585.102 232.609 584.558L586.558 230.609C587.102 230.064 588.031 230.314 588.231 231.057L717.785 714.56C717.984 715.304 717.304 715.984 716.56 715.785L233.057 586.231Z" fill="#1C4F73"/>
<path d="M222.968 511.333C222.302 510.948 222.302 509.985 222.968 509.601L656.466 259.321C657.132 258.936 657.966 259.417 657.966 260.187L657.966 760.746C657.966 761.516 657.132 761.997 656.466 761.612L222.968 511.333Z" fill="#1C557D"/>
<path d="M232.609 436.375C232.064 435.831 232.313 434.902 233.057 434.702L716.56 305.148C717.304 304.949 717.984 305.629 717.785 306.373L588.231 789.876C588.031 790.62 587.102 790.869 586.558 790.324L232.609 436.375Z" fill="#236392"/>
<path d="M261.321 366.468C260.936 365.801 261.417 364.968 262.187 364.968L762.746 364.968C763.516 364.968 763.997 365.801 763.612 366.468L513.332 799.965C512.948 800.631 511.985 800.631 511.6 799.965L261.321 366.468Z" fill="#3387C3"/>
<path d="M307.148 306.373C306.949 305.629 307.629 304.949 308.373 305.148L791.876 434.702C792.62 434.902 792.869 435.831 792.324 436.375L438.375 790.324C437.831 790.869 436.902 790.62 436.702 789.876L307.148 306.373Z" fill="url(#paint0_linear_3_50)"/>
<rect y="-2" width="1024" height="1024" fill="#595DAF" fill-opacity="0.41" style="mix-blend-mode:darken"/>
<rect y="-2" width="1024" height="1024" fill="#595DAF" fill-opacity="0.41" style="mix-blend-mode:darken"/>
<rect y="-2" width="1024" height="1024" fill="url(#paint1_linear_3_50)"/>
</g>
<defs>
<linearGradient id="paint0_linear_3_50" x1="512.467" y1="98.9332" x2="512.466" y2="922" gradientUnits="userSpaceOnUse">
<stop stop-color="#BCD6E8"/>
<stop offset="1" stop-color="#0095FF"/>
</linearGradient>
<linearGradient id="paint1_linear_3_50" x1="512" y1="-442" x2="512" y2="674" gradientUnits="userSpaceOnUse">
<stop stop-color="white" stop-opacity="0.06"/>
<stop offset="1" stop-color="white" stop-opacity="0"/>
</linearGradient>
</defs>
</svg>
